Coordinates
version=1
nRows=16
nColumns=22
inDegrees=yes

Units are S.I. units (second, meters, Newtons, ...)
If the header above contains a line with 'inDegrees', this indicates whether rotational values are in degrees (yes) or radians (no).

endheader
time	pelvis_tilt	pelvis_list	pelvis_rotation	pelvis_tx	pelvis_ty	pelvis_tz	hip_flexion_r	hip_adduction_r	hip_rotation_r	knee_angle_r	ankle_angle_r	subtalar_angle_r	hip_flexion_l	hip_adduction_l	hip_rotation_l	knee_angle_l	ankle_angle_l	subtalar_angle_l	lumbar_extension	lumbar_bending	lumbar_rotation
      5.49000000	     -2.05055599	     -1.32419999	   -123.12089936	      0.83109184	      1.06630658	      0.64604410	     -5.92682019	     11.51555620	      2.95020773	     -8.70858197	     12.30412128	    -14.06654226	     21.64145123	     -7.54985676	      3.63365524	    -44.29160753	      8.25680461	      0.47981792	     -4.48209552	      0.61203823	      1.11388993
      5.50000000	     -1.94969974	     -1.30585803	   -124.15653236	      0.82701319	      1.06606054	      0.65156790	     -6.26633344	     11.27995972	      3.91526275	     -8.89351051	     12.52036581	    -13.94849663	     21.96194535	     -7.40649847	      3.47177150	    -42.31191548	      8.49857412	      0.77516005	     -4.43756535	      0.47235924	      1.23053409
      5.51000000	     -1.78931067	     -1.26014565	   -125.12823225	      0.82308196	      1.06566373	      0.65714282	     -6.49728603	     11.00473204	      4.79972796	     -9.14121844	     12.79900786	    -13.86648864	     22.32059382	     -7.19776515	      3.31971853	    -40.30479308	      8.63997064	      1.03905029	     -4.32877568	      0.30961841	      1.31354144
      5.52000000	     -1.67642659	     -1.29181249	   -126.05220591	      0.81919587	      1.06534039	      0.66279997	     -6.82991043	     10.71994501	      5.67865457	     -9.36543228	     13.08978466	    -13.78158144	     22.54423028	     -6.96720763	      3.16469651	    -38.26012098	      8.73867517	      1.51950169	     -4.32313857	      0.14817731	      1.38177642
      5.53000000	     -1.51130579	     -1.30695369	   -126.92142801	      0.81539673	      1.06487806	      0.66851777	     -7.07683962	     10.39854140	      6.47465984	     -9.63902921	     13.42786438	    -13.72019740	     22.78905614	     -6.68274734	      2.99900344	    -36.19433474	      8.73723007	      2.00660571	     -4.26353259	     -0.04149828	      1.41845035
      5.54000000	     -1.33507933	     -1.33659617	   -127.74261249	      0.81164146	      1.06434893	      0.67430734	     -7.30758465	     10.05903715	      7.20933558	     -9.93435102	     13.79149815	    -13.67011564	     22.99886387	     -6.36445570	      2.82488301	    -34.10943309	      8.65588062	      2.57845951	     -4.20520475	     -0.24546738	      1.43668477
      5.55000000	     -1.14919472	     -1.38266726	   -128.51863685	      0.80791578	      1.06375893	      0.68016628	     -7.53016705	      9.70183246	      7.88200418	    -10.24198319	     14.16930282	    -13.62624578	     23.16980801	     -6.01389675	      2.64415904	    -32.00833861	      8.50208919	      3.24854588	     -4.14968383	     -0.46557823	      1.43833838
      5.56000000	     -0.95687974	     -1.44439628	   -129.25550585	      0.80419810	      1.06311373	      0.68610106	     -7.75087076	      9.32959852	      8.49396108	    -10.55529470	     14.55416905	    -13.58513899	     23.29857372	     -5.63569448	      2.46233480	    -29.89593593	      8.29055203	      4.01597725	     -4.09651787	     -0.69837499	      1.42892625
      5.57000000	     -0.76108099	     -1.51889357	   -129.95557998	      0.80046908	      1.06241530	      0.69210200	     -7.97107818	      8.94773849	      9.04315282	    -10.87232357	     14.93912382	    -13.54491497	     23.38610181	     -5.23545855	      2.28902931	    -27.77897978	      8.04323543	      4.86094690	     -4.04411764	     -0.94266317	      1.40886752
      5.58000000	     -0.56443122	     -1.60365002	   -130.62491586	      0.79671429	      1.06166881	      0.69816295	     -8.19437196	      8.55893144	      9.53570781	    -11.18721462	     15.32054596	    -13.50444967	     23.43077012	     -4.81870060	      2.13871409	    -25.66327660	      7.79323622	      5.76234079	     -3.99220398	     -1.19471850	      1.38325974
      5.59000000	     -0.36657692	     -1.69438016	   -131.26681978	      0.79292441	      1.06087622	      0.70428012	     -8.41876638	      8.16519207	      9.97065212	    -11.49765867	     15.69201399	    -13.46287726	     23.43533923	     -4.38880373	      2.03321051	    -23.55509366	      7.56789494	      6.69677568	     -3.93669333	     -1.45216998	      1.35173644
      5.60000000	     -0.16881226	     -1.78198282	   -131.88159762	      0.78908995	      1.06003444	      0.71045128	     -8.64104833	      7.77335917	     10.35351439	    -11.79878175	     16.04832921	    -13.41742687	     23.40445069	     -3.95469730	      2.00061337	    -21.45845260	      7.39675044	      7.64141533	     -3.87251874	     -1.70928478	      1.31623742
      5.61000000	      0.03160617	     -1.86057333	   -132.47403252	      0.78521050	      1.05913756	      0.71667245	     -8.85468890	      7.38452065	     10.69593260	    -12.09223006	     16.39551855	    -13.36352990	     23.34287731	     -3.52244449	      2.05985670	    -19.38133054	      7.30712803	      8.56050741	     -3.79419157	     -1.96434075	      1.27329059
      5.62000000	      0.23450532	     -1.92130199	   -133.04676550	      0.78128167	      1.05818736	      0.72294755	     -9.05406299	      7.00322292	     10.99853638	    -12.37637771	     16.71924212	    -13.29396675	     23.25321852	     -3.10185158	      2.24211315	    -17.32799693	      7.28797313	      9.45608391	     -3.69485617	     -2.20876637	      1.22160728
      5.63000000	      0.43547325	     -1.96029386	   -133.60520835	      0.77729128	      1.05718274	      0.72926902	     -9.23956475	      6.63598370	     11.28450128	    -12.65411266	     17.02488942	    -13.20178773	     23.13425155	     -2.70735639	      2.55522563	    -15.31233996	      7.34654671	     10.31807699	     -3.57551561	     -2.43713887	      1.16393927
      5.64000000	      0.63107183	     -1.97494949	   -134.15760736	      0.77321861	      1.05612651	      0.73562941	     -9.41216874	      6.28594809	     11.57141490	    -12.92731932	     17.31142737	    -13.08047301	     22.98827756	     -2.35344402	      2.98893709	    -13.36001977	      7.46079583	     11.15113362	     -3.43651527	     -2.64475877	      1.10636527
